<svg width="1440" height="290" viewBox="0 0 1440 290" fill="none" xmlns="http://www.w3.org/2000/svg">
<path d="M130.77 141.736L137.25 137.476C137.66 137.256 138.02 136.946 138.31 136.576L138.34 136.546L143.64 126.656C143.64 126.656 144.13 125.636 145.43 125.616C145.43 125.616 146.62 125.576 147.21 126.656L152.51 136.546L152.66 136.726C152.89 137.006 153.17 137.236 153.5 137.406L153.64 137.476L160.12 141.736C160.12 141.736 161.75 142.676 161.69 144.576C161.69 144.576 161.72 146.446 160.11 147.416L153.51 151.646L153.26 151.806C153.12 151.896 152.98 152.006 152.86 152.126C152.75 152.236 152.66 152.356 152.59 152.496L147.27 162.366C147.27 162.366 146.78 163.436 145.43 163.476C145.43 163.476 144.23 163.516 143.61 162.366L138.31 152.506C138.23 152.356 138.13 152.216 138.01 152.096C137.89 151.976 137.75 151.866 137.6 151.776L137.38 151.636L130.78 147.406C130.78 147.406 129.24 146.596 129.18 144.566C129.18 144.566 129.05 142.866 130.78 141.726L130.77 141.736Z" fill="white"/>
<path d="M145.395 162.977C145.373 162.976 145.337 162.973 145.291 162.968C145.198 162.957 145.066 162.934 144.92 162.882C144.632 162.78 144.288 162.571 144.05 162.129L138.75 152.27C138.65 152.082 138.522 151.902 138.363 151.743C138.252 151.632 138.128 151.527 137.994 151.436L137.857 151.348L137.648 151.215H137.647L131.05 146.985L131.031 146.974L131.014 146.964L131.015 146.965H131.016C131.015 146.965 131.013 146.964 131.01 146.962C131.003 146.958 130.992 146.952 130.977 146.942C130.945 146.923 130.896 146.891 130.836 146.847C130.715 146.757 130.549 146.617 130.382 146.422C130.05 146.036 129.706 145.432 129.68 144.552V144.54L129.679 144.528V144.526C129.678 144.52 129.678 144.507 129.678 144.489C129.678 144.454 129.678 144.397 129.685 144.324C129.697 144.178 129.729 143.968 129.807 143.728C129.96 143.253 130.295 142.648 131.043 142.151L131.045 142.154L137.518 137.898C137.968 137.651 138.36 137.313 138.679 136.914L138.693 136.899L138.746 136.848L138.78 136.782L144.081 126.893L144.089 126.877L144.098 126.86C144.107 126.844 144.124 126.816 144.148 126.781C144.197 126.711 144.274 126.613 144.383 126.515C144.595 126.323 144.93 126.124 145.438 126.116H145.467C145.489 126.117 145.525 126.119 145.571 126.124C145.664 126.134 145.795 126.157 145.939 126.205C146.19 126.289 146.471 126.447 146.685 126.755L146.771 126.896L152.069 136.782L152.094 136.827L152.126 136.866L152.275 137.046C152.547 137.376 152.879 137.649 153.271 137.851L153.276 137.854L153.389 137.91L159.846 142.154L159.857 142.162L159.87 142.169C159.871 142.17 159.873 142.171 159.876 142.173C159.884 142.178 159.897 142.186 159.914 142.197C159.949 142.22 160.002 142.257 160.067 142.308C160.198 142.409 160.373 142.562 160.546 142.767C160.891 143.174 161.215 143.768 161.19 144.561L161.189 144.572L161.19 144.584C161.19 144.586 161.19 144.588 161.19 144.592C161.19 144.601 161.189 144.616 161.188 144.637C161.187 144.679 161.182 144.743 161.173 144.825C161.154 144.99 161.113 145.221 161.028 145.477C160.86 145.988 160.525 146.583 159.852 146.988L159.84 146.995L153.24 151.226L152.99 151.386H152.989C152.823 151.493 152.655 151.625 152.507 151.772C152.367 151.913 152.245 152.071 152.149 152.259L146.83 162.129L146.822 162.144L146.817 162.154L146.816 162.155C146.815 162.158 146.812 162.164 146.808 162.173C146.798 162.191 146.781 162.221 146.756 162.258C146.706 162.333 146.627 162.436 146.515 162.541C146.295 162.746 145.947 162.961 145.415 162.977C145.411 162.977 145.405 162.977 145.395 162.977Z" stroke="#F7F5F5" stroke-opacity="0.04"/>
<path d="M156.95 25.2767C156.95 34.4067 152.24 42.4267 145.12 47.0467C143.32 48.2167 141.24 48.8867 139.12 49.1867C137.25 49.4567 135.4 49.7367 133.56 50.0167C131.66 50.3067 129.78 50.6267 127.91 50.9967C73.92 61.7567 33.22 109.407 33.22 166.567C33.22 213.267 60.37 253.607 99.75 272.677C99.76 272.677 99.76 272.687 99.77 272.677C100.43 272.997 101.09 273.317 101.76 273.617C103.35 274.837 104.16 277.057 103.28 279.337C102.55 281.247 100.63 282.387 98.59 282.307C98.55 282.307 98.51 282.307 98.46 282.307C97.64 282.027 96.83 281.737 96.01 281.457C39.71 261.307 0 207.617 0 144.537C0 72.2367 52.77 12.2667 121.89 1.02668C123.81 0.71668 125.73 0.43668 127.67 0.19668C142.4 -1.59332 156.11 9.03668 156.91 23.8567C156.94 24.3267 156.95 24.7967 156.95 25.2667V25.2767Z" fill="white"/>
<path d="M204.29 116.517V116.567C204.32 117.407 203.86 118.197 203.07 118.497C202.13 118.857 201.22 118.527 200.72 117.867C200.6 117.597 200.46 117.327 200.34 117.057C192.51 100.867 175.93 89.7266 156.75 89.7266C144.43 89.7266 133.2 94.3166 124.65 101.897L124.61 101.937C114.78 111.267 113.4 128.607 113.4 128.607L113.37 128.877C112.49 135.467 106.85 140.547 100.02 140.547C99.8198 140.547 99.5998 140.547 99.3998 140.527C99.3798 140.537 99.3498 140.527 99.3298 140.527C96.2498 140.377 93.4398 139.177 91.2498 137.297C88.3798 134.827 86.5498 131.167 86.5498 127.067C86.5498 126.177 86.6398 125.317 86.8098 124.467C86.8098 124.467 86.8198 124.427 86.8298 124.347C87.1398 122.577 91.3998 100.687 113.86 86.5666C113.91 86.5366 113.96 86.5066 114.01 86.4666C123.61 79.8966 135.2 76.0566 147.7 76.0566C173.61 76.0566 195.67 92.3766 203.94 115.497C204.06 115.837 204.17 116.167 204.29 116.497V116.517Z" fill="white"/>
<path d="M86.5502 172.567V172.517C86.5202 171.677 86.9802 170.887 87.7702 170.587C88.7102 170.227 89.6202 170.557 90.1202 171.217C90.2402 171.487 90.3802 171.757 90.5002 172.027C98.3302 188.217 114.91 199.357 134.09 199.357C146.41 199.357 157.64 194.767 166.19 187.187L166.23 187.147C176.06 177.817 177.44 160.477 177.44 160.477L177.47 160.207C178.35 153.617 183.99 148.537 190.82 148.537C191.02 148.537 191.24 148.537 191.44 148.557C191.46 148.547 191.49 148.557 191.51 148.557C194.59 148.707 197.4 149.907 199.59 151.787C202.46 154.257 204.29 157.917 204.29 162.017C204.29 162.907 204.2 163.767 204.03 164.617C204.03 164.617 204.02 164.657 204.01 164.737C203.7 166.507 199.44 188.397 176.98 202.517C176.93 202.547 176.88 202.577 176.83 202.617C167.23 209.187 155.64 213.027 143.14 213.027C117.23 213.027 95.1702 196.707 86.9002 173.587C86.7802 173.247 86.6702 172.917 86.5502 172.587V172.567Z" fill="white"/>
<path d="M133.88 264.686C133.88 255.556 138.59 247.536 145.71 242.916C147.51 241.746 149.59 241.076 151.71 240.776C153.58 240.506 155.43 240.226 157.27 239.946C159.17 239.656 161.05 239.336 162.92 238.966C216.91 228.206 257.61 180.556 257.61 123.396C257.61 76.6963 230.46 36.3563 191.08 17.2863C191.07 17.2863 191.07 17.2763 191.06 17.2863C190.4 16.9663 189.74 16.6463 189.07 16.3463C187.48 15.1263 186.67 12.9063 187.55 10.6263C188.28 8.71629 190.2 7.57629 192.24 7.65629C192.28 7.65629 192.32 7.65629 192.37 7.65629C193.19 7.93629 194 8.22629 194.82 8.50629C251.12 28.6463 290.83 82.3363 290.83 145.416C290.83 217.716 238.06 277.686 168.94 288.926C167.02 289.236 165.1 289.516 163.16 289.756C148.43 291.546 134.72 280.916 133.92 266.096C133.89 265.626 133.88 265.156 133.88 264.686Z" fill="white"/>
<path d="M981.68 64H1012.65C1013.67 64.08 1015.51 64.11 1018.14 64.11H1108.02L1022.76 198.6L1021 195.08H1107.8V225.85H970.23C975.21 217.94 979.79 210.69 983.96 204.09C988.14 197.5 992.82 190.03 998.02 181.68C1003.22 173.33 1008.57 164.76 1014.06 155.97C1019.55 147.18 1024.9 138.61 1030.1 130.26C1035.3 121.91 1039.99 114.44 1044.16 107.85C1048.33 101.26 1052.91 94.01 1057.89 86.09L1061.41 94.88H1003.18C1000.1 94.88 996.92 94.19 993.62 92.79C990.32 91.4 987.54 89.49 985.27 87.08C983 84.66 981.86 81.99 981.86 79.06L981.66 64.01L981.68 64Z" fill="white"/>
<path d="M410.45 229.11L483.06 61.81C483.27 61.32 483.76 61 484.29 61C484.82 61 485.31 61.32 485.52 61.81L558.13 229.11H521.21L482.64 131.23L497.7 95.07L441.88 229.12H410.46L410.45 229.11ZM460.33 170.66H508.9L520.11 197.47H450.45L460.34 170.66H460.33Z" fill="white"/>
<path d="M1231.56 229.11L1304.17 61.81C1304.38 61.32 1304.87 61 1305.4 61C1305.93 61 1306.42 61.32 1306.63 61.81L1379.24 229.11H1342.32L1303.75 131.23L1318.81 95.07L1262.99 229.12H1231.57L1231.56 229.11ZM1281.44 170.66H1330.01L1341.22 197.47H1271.56L1281.45 170.66H1281.44Z" fill="white"/>
<path d="M726.54 61C740.16 61 751.66 63.24 761.04 67.7C770.41 72.17 777.56 78.47 782.47 86.6C787.38 94.73 789.83 104.37 789.83 115.5C789.83 122.09 788.84 128.69 786.86 135.28C784.88 141.87 781.66 147.88 777.19 153.3C772.72 158.72 766.82 163.08 759.5 166.38C752.17 169.68 743.09 171.32 732.25 171.32H709.4V228.93H677.54V61H726.54ZM732.03 140.55C738.48 140.55 743.49 139.2 747.08 136.48C750.67 133.77 753.2 130.55 754.66 126.81C756.12 123.07 756.86 119.67 756.86 116.59C756.86 114.83 756.6 112.6 756.09 109.89C755.58 107.18 754.51 104.43 752.9 101.65C751.29 98.87 748.84 96.52 745.54 94.62C742.24 92.72 737.81 91.76 732.25 91.76H709.4V140.54H732.03V140.55ZM761.92 160.33L806.06 228.92H768.92L723.9 161.2L761.92 160.32V160.33Z" fill="white"/>
<path d="M814.31 229.11L886.92 61.81C887.13 61.32 887.62 61 888.15 61C888.68 61 889.17 61.32 889.38 61.81L961.99 229.11H925.07L878.48 110.88L901.55 95.06L845.73 229.11H814.31ZM864.19 170.66H912.76L923.97 197.47H854.31L864.2 170.66H864.19Z" fill="white"/>
<path d="M1143.23 167.21C1142.55 167.21 1141.99 167.77 1141.99 168.46C1141.99 169.15 1142.54 169.71 1143.23 169.71C1143.92 169.71 1144.48 169.15 1144.48 168.46C1144.48 167.77 1143.92 167.21 1143.23 167.21Z" fill="white"/>
<path d="M1148.58 157.36C1147.75 157.36 1147.08 158.04 1147.08 158.88C1147.08 159.72 1147.75 160.4 1148.58 160.4C1149.41 160.4 1150.1 159.72 1150.1 158.88C1150.1 158.04 1149.41 157.36 1148.58 157.36Z" fill="white"/>
<path d="M1154.51 217.23C1154.51 218.14 1155.25 218.86 1156.14 218.86C1157.03 218.86 1157.76 218.14 1157.76 217.23C1157.76 216.32 1157.04 215.6 1156.14 215.6C1155.24 215.6 1154.51 216.32 1154.51 217.23Z" fill="white"/>
<path d="M1171.75 60H1139.89V229.09H1163.61V194.43H1157.23V168.82H1145.15C1144.98 169.73 1144.19 170.42 1143.22 170.42C1142.14 170.42 1141.27 169.54 1141.27 168.46C1141.27 167.38 1142.14 166.5 1143.22 166.5C1144.18 166.5 1144.98 167.19 1145.15 168.1H1157.94V193.71H1164.32V229.08H1171.75V60ZM1147.8 175.23C1149.2 175.23 1150.35 176.38 1150.35 177.8C1150.35 179.22 1149.21 180.37 1147.8 180.37H1148.26V210.38H1156.61V214.71C1157.79 214.93 1158.69 215.98 1158.69 217.23C1158.69 218.64 1157.55 219.8 1156.14 219.8C1154.73 219.8 1153.57 218.64 1153.57 217.23C1153.57 215.98 1154.48 214.93 1155.68 214.71V211.31H1147.33V180.36H1147.8C1146.38 180.36 1145.23 179.21 1145.23 177.79C1145.23 176.37 1146.38 175.22 1147.8 175.22V175.23ZM1167.98 161.27C1166.81 161.27 1165.84 160.43 1165.64 159.32H1150.92C1150.72 160.43 1149.75 161.27 1148.58 161.27C1147.27 161.27 1146.21 160.2 1146.21 158.89C1146.21 157.58 1147.27 156.51 1148.58 156.51C1149.75 156.51 1150.71 157.35 1150.92 158.46H1165.64C1165.85 157.35 1166.81 156.51 1167.98 156.51C1169.29 156.51 1170.36 157.58 1170.36 158.89C1170.36 160.2 1169.29 161.27 1167.98 161.27Z" fill="white"/>
<path d="M1167.98 157.36C1167.14 157.36 1166.46 158.04 1166.46 158.88C1166.46 159.72 1167.14 160.4 1167.98 160.4C1168.82 160.4 1169.5 159.72 1169.5 158.88C1169.5 158.04 1168.81 157.36 1167.98 157.36Z" fill="white"/>
<path d="M1147.8 179.43C1148.69 179.43 1149.41 178.7 1149.41 177.8C1149.41 176.9 1148.69 176.16 1147.8 176.16C1146.91 176.16 1146.16 176.89 1146.16 177.8C1146.16 178.71 1146.9 179.43 1147.8 179.43Z" fill="white"/>
<path d="M1411.31 167.21C1410.63 167.21 1410.07 167.77 1410.07 168.46C1410.07 169.15 1410.62 169.71 1411.31 169.71C1412 169.71 1412.56 169.15 1412.56 168.46C1412.56 167.77 1412 167.21 1411.31 167.21Z" fill="white"/>
<path d="M1416.66 157.36C1415.83 157.36 1415.16 158.04 1415.16 158.88C1415.16 159.72 1415.83 160.4 1416.66 160.4C1417.49 160.4 1418.18 159.72 1418.18 158.88C1418.18 158.04 1417.49 157.36 1416.66 157.36Z" fill="white"/>
<path d="M1422.6 217.23C1422.6 218.14 1423.34 218.86 1424.23 218.86C1425.12 218.86 1425.85 218.14 1425.85 217.23C1425.85 216.32 1425.13 215.6 1424.23 215.6C1423.33 215.6 1422.6 216.32 1422.6 217.23Z" fill="white"/>
<path d="M1439.83 60H1407.97V229.09H1431.69V194.43H1425.31V168.82H1413.23C1413.06 169.73 1412.27 170.42 1411.3 170.42C1410.22 170.42 1409.35 169.54 1409.35 168.46C1409.35 167.38 1410.22 166.5 1411.3 166.5C1412.26 166.5 1413.06 167.19 1413.23 168.1H1426.02V193.71H1432.4V229.08H1439.83V60ZM1415.88 175.23C1417.28 175.23 1418.43 176.38 1418.43 177.8C1418.43 179.22 1417.29 180.37 1415.88 180.37H1416.34V210.38H1424.69V214.71C1425.87 214.93 1426.77 215.98 1426.77 217.23C1426.77 218.64 1425.63 219.8 1424.22 219.8C1422.81 219.8 1421.65 218.64 1421.65 217.23C1421.65 215.98 1422.56 214.93 1423.76 214.71V211.31H1415.41V180.36H1415.88C1414.46 180.36 1413.31 179.21 1413.31 177.79C1413.31 176.37 1414.46 175.22 1415.88 175.22V175.23ZM1436.06 161.27C1434.89 161.27 1433.92 160.43 1433.72 159.32H1419C1418.8 160.43 1417.83 161.27 1416.66 161.27C1415.35 161.27 1414.29 160.2 1414.29 158.89C1414.29 157.58 1415.35 156.51 1416.66 156.51C1417.83 156.51 1418.79 157.35 1419 158.46H1433.72C1433.93 157.35 1434.89 156.51 1436.06 156.51C1437.37 156.51 1438.44 157.58 1438.44 158.89C1438.44 160.2 1437.37 161.27 1436.06 161.27Z" fill="white"/>
<path d="M1436.06 157.36C1435.22 157.36 1434.54 158.04 1434.54 158.88C1434.54 159.72 1435.22 160.4 1436.06 160.4C1436.9 160.4 1437.58 159.72 1437.58 158.88C1437.58 158.04 1436.89 157.36 1436.06 157.36Z" fill="white"/>
<path d="M1415.88 179.43C1416.77 179.43 1417.49 178.7 1417.49 177.8C1417.49 176.9 1416.77 176.16 1415.88 176.16C1414.99 176.16 1414.24 176.89 1414.24 177.8C1414.24 178.71 1414.98 179.43 1415.88 179.43Z" fill="white"/>
<path d="M410 229.11L482.61 61.81C482.82 61.32 483.31 61 483.84 61C484.37 61 484.86 61.32 485.07 61.81L557.68 229.11H520.76L482.19 131.23L497.25 95.07L441.43 229.12H410.01L410 229.11ZM459.88 170.66H508.45L519.66 197.47H450L459.89 170.66H459.88Z" fill="white"/>
<path d="M589.75 167.21C589.07 167.21 588.51 167.77 588.51 168.46C588.51 169.15 589.06 169.71 589.75 169.71C590.44 169.71 591 169.15 591 168.46C591 167.77 590.44 167.21 589.75 167.21Z" fill="white"/>
<path d="M595.1 157.36C594.27 157.36 593.6 158.04 593.6 158.88C593.6 159.72 594.27 160.4 595.1 160.4C595.93 160.4 596.62 159.72 596.62 158.88C596.62 158.04 595.93 157.36 595.1 157.36Z" fill="white"/>
<path d="M601.04 217.23C601.04 218.14 601.78 218.86 602.67 218.86C603.56 218.86 604.29 218.14 604.29 217.23C604.29 216.32 603.57 215.6 602.67 215.6C601.77 215.6 601.04 216.32 601.04 217.23Z" fill="white"/>
<path d="M618.27 60H586.41V229.09H610.13V194.43H603.75V168.82H591.67C591.5 169.73 590.71 170.42 589.74 170.42C588.66 170.42 587.79 169.54 587.79 168.46C587.79 167.38 588.66 166.5 589.74 166.5C590.7 166.5 591.5 167.19 591.67 168.1H604.46V193.71H610.84V229.08H618.27V60ZM594.32 175.23C595.72 175.23 596.87 176.38 596.87 177.8C596.87 179.22 595.73 180.37 594.32 180.37H594.78V210.38H603.13V214.71C604.31 214.93 605.21 215.98 605.21 217.23C605.21 218.64 604.07 219.8 602.66 219.8C601.25 219.8 600.09 218.64 600.09 217.23C600.09 215.98 601 214.93 602.2 214.71V211.31H593.85V180.36H594.32C592.9 180.36 591.75 179.21 591.75 177.79C591.75 176.37 592.9 175.22 594.32 175.22V175.23ZM614.5 161.27C613.33 161.27 612.36 160.43 612.16 159.32H597.44C597.24 160.43 596.27 161.27 595.1 161.27C593.79 161.27 592.73 160.2 592.73 158.89C592.73 157.58 593.79 156.51 595.1 156.51C596.27 156.51 597.23 157.35 597.44 158.46H612.16C612.37 157.35 613.33 156.51 614.5 156.51C615.81 156.51 616.88 157.58 616.88 158.89C616.88 160.2 615.81 161.27 614.5 161.27Z" fill="white"/>
<path d="M614.5 157.36C613.66 157.36 612.98 158.04 612.98 158.88C612.98 159.72 613.66 160.4 614.5 160.4C615.34 160.4 616.02 159.72 616.02 158.88C616.02 158.04 615.33 157.36 614.5 157.36Z" fill="white"/>
<path d="M594.32 179.43C595.21 179.43 595.93 178.7 595.93 177.8C595.93 176.9 595.21 176.16 594.32 176.16C593.43 176.16 592.68 176.89 592.68 177.8C592.68 178.71 593.42 179.43 594.32 179.43Z" fill="white"/>
</svg>
